<svg xmlns="http://www.w3.org/2000/svg" fill="none" viewBox="0 0 440 305"><path stroke="#fff" stroke-width="4" d="M293.545 167.405 229.5 204.381a8 8 0 0 1-8 0l-64.045-36.976a8 8 0 0 1-4-6.929V86.523a8 8 0 0 1 4-6.928L221.5 42.62a8 8 0 0 1 8 0l64.045 36.976a8 8 0 0 1 4 6.928v73.953a8 8 0 0 1-4 6.929Z" class="myHexagon"/><path stroke="#fff" stroke-width="4" d="M147.455 73.595 211.5 36.62a8 8 0 0 1 8 0l64.045 36.976a8 8 0 0 1 4 6.928v73.954a8 8 0 0 1-4 6.928L219.5 198.381a8 8 0 0 1-8 0l-64.045-36.976a8 8 0 0 1-4-6.928V80.523a8 8 0 0 1 4-6.928Z" class="myHexagon"/><mask id="path-5-inside-1" fill="#fff"><path d="M32.52 293.502a1.13 1.13 0 0 1-.83.342c-.294 0-.554-.114-.782-.342a1.233 1.233 0 0 1-.293-.83c0-.293.114-.554.342-.781 3.027-2.995 8.35-8.041 15.967-15.137-2.181.26-4.509.602-6.983 1.025-14.713 2.572-27.441 6.853-38.183 12.842-.26.163-.554.195-.88.098-.292-.065-.52-.244-.683-.537a1.047 1.047 0 0 1-.049-.83 1.25 1.25 0 0 1 .538-.684c10.937-6.12 23.91-10.482 38.916-13.086a172.654 172.654 0 0 1 10.107-1.416c23.372-21.68 38.428-33.789 45.166-36.328 2.409-.912 3.939-.521 4.59 1.172.358.944.31 2.376-.147 4.297-.455 1.888-1.383 4.362-2.783 7.422-1.367 3.027-2.571 5.566-3.613 7.617-1.01 2.05-2.49 4.948-4.443 8.691a582.815 582.815 0 0 0-3.272 6.348c.651.032 1.53.097 2.637.195 2.441.195 4.199.521 5.273.977 1.075.455 1.579 1.041 1.514 1.757-.033.359-.228.717-.586 1.075-.326.358-.879.732-1.66 1.123-.781.39-1.465.7-2.051.927-.586.261-1.465.619-2.637 1.075-2.701 1.041-4.606 1.823-5.713 2.343-1.106.554-1.871.391-2.294-.488-.424-.814.26-3.141 2.05-6.982-10.514-.521-20.882-.228-31.103.879-8.496 7.91-14.535 13.655-18.115 17.236Zm63.134-53.613c-6.282 2.409-20.377 13.704-42.285 33.886a202.05 202.05 0 0 1 29.444-.586c.65-1.269 1.888-3.662 3.71-7.177a1099.86 1099.86 0 0 0 2.833-5.469c.65-1.27 1.513-2.995 2.587-5.176 1.107-2.213 1.954-3.987 2.54-5.322a97.122 97.122 0 0 0 1.757-4.297c.619-1.53 1.01-2.767 1.172-3.711.163-.976.147-1.709-.049-2.197-.13-.358-.7-.342-1.709.049Zm-11.572 35.644c-1.204 2.442-1.953 4.102-2.246 4.981 1.042-.489 2.718-1.188 5.03-2.1 3.678-1.4 5.517-2.148 5.517-2.246 0-.033-.13-.049-.39-.049-.261-.032-.815-.065-1.661-.098a132.83 132.83 0 0 1-2.685-.244 75.061 75.061 0 0 0-3.565-.244Z"/><path d="M106.006 271.822a1.084 1.084 0 0 1-.635.44 1.01 1.01 0 0 1-.732-.196 1.081 1.081 0 0 1-.44-.634.853.853 0 0 1 .147-.733c.976-1.465 1.416-2.441 1.318-2.929-.032-.098-.26-.098-.684 0-.878.13-1.79.553-2.734 1.269-.749.553-1.318 1.156-1.709 1.807s-.456 1.269-.195 1.855c.26.684 1.025 1.872 2.295 3.565l.244.244c1.107-.456 2.246-.912 3.418-1.367a108.12 108.12 0 0 1 3.125-1.221 68.405 68.405 0 0 1 2.49-.928 56.927 56.927 0 0 1 1.758-.635c.391-.162.602-.244.635-.244a.848.848 0 0 1 .488-.049.847.847 0 0 1 .439.245.776.776 0 0 1 .342.439.936.936 0 0 1-.049.781 1.09 1.09 0 0 1-.586.489l-.195.097c-.13.033-.325.098-.586.195a9.232 9.232 0 0 0-.83.293c-.325.131-.7.277-1.123.44-.423.13-.879.293-1.367.488-.488.163-1.009.358-1.563.586-.553.195-1.106.407-1.66.635-.553.195-1.139.423-1.758.684-.618.227-1.22.472-1.806.732 1.107 1.595 1.66 2.93 1.66 4.004.032 1.4-.765 2.49-2.393 3.271-1.595.814-4.313 1.27-8.154 1.367-5.566.131-7.894-.585-6.982-2.148.911-1.628 5.175-4.069 12.793-7.324-1.335-1.758-2.181-3.06-2.54-3.906-.39-1.075-.325-2.133.196-3.174.52-1.074 1.335-2.018 2.441-2.832 1.205-.912 2.393-1.465 3.565-1.66 1.692-.293 2.685.227 2.978 1.562.228 1.074-.309 2.572-1.611 4.492Zm-2.295 10.401c0-.749-.521-1.84-1.563-3.272-7.03 2.93-10.156 4.769-9.375 5.518.26.26 1.042.374 2.344.342 5.762-.131 8.626-.993 8.594-2.588Z"/><path d="M140.234 272.018a.955.955 0 0 1 .733.097.89.89 0 0 1 .488.635.854.854 0 0 1-.146.732.9.9 0 0 1-.586.44c-.098.032-.537.146-1.319.342-.781.195-1.855.488-3.222.879a96.636 96.636 0 0 0-4.102 1.171 52.692 52.692 0 0 0-4.004 1.319c-1.302.488-2.278.928-2.93 1.318-1.399.847-2.311.912-2.734.195-.228-.358-.179-1.009.147-1.953.716-2.083.813-3.759.293-5.029-.228-.586-.879-.358-1.954.684-1.074 1.009-2.327 2.522-3.759 4.541a729.659 729.659 0 0 0-3.223 4.492 176.48 176.48 0 0 0-1.758 2.637v.048c-.13.228-.342.358-.635.391a.953.953 0 0 1-.732-.098c-.423-.293-.553-.683-.391-1.171h-.048c4.003-12.598 7.535-22.673 10.595-30.225 3.093-7.552 5.648-12.809 7.666-15.772.749-1.106 1.449-1.92 2.1-2.441.683-.521 1.269-.749 1.758-.684.488.066.911.391 1.269.977.716 1.139.716 3.483 0 7.031-.455 2.279-1.172 4.72-2.148 7.324-.944 2.605-2.149 5.339-3.613 8.204-1.433 2.832-3.223 5.631-5.372 8.398-2.115 2.734-4.394 5.078-6.836 7.031-.325.944-.83 2.474-1.513 4.59 2.344-3.092 4.492-5.404 6.445-6.933 1.953-1.563 3.288-1.482 4.004.244.651 1.595.667 3.418.049 5.468 1.269-.651 3.223-1.383 5.859-2.197 2.67-.846 4.867-1.497 6.592-1.953 1.725-.456 2.734-.7 3.027-.732Zm-10.009-33.204c-3.386 4.981-7.764 15.284-13.135 30.909 2.571-2.539 4.931-5.55 7.08-9.034 2.148-3.515 3.809-6.803 4.98-9.863 1.205-3.06 2.084-5.941 2.637-8.642.619-2.995.7-4.867.244-5.616-.097-.13-.7.619-1.806 2.246Z"/><path d="M163.574 247.359c-.358 0-.635.163-.83.489-.488.683-1.318 2.229-2.49 4.638-10.417.521-18.669 1.547-24.756 3.077-2.148.553-3.89 1.09-5.225 1.611-1.334.521-2.246.993-2.734 1.416-.521.39-.732.765-.635 1.123.228.879 1.628 1.269 4.2 1.172a37.224 37.224 0 0 0 6.005-.684c1.498-.26 2.67-.618 3.516-1.074.879-.456 1.253-.993 1.123-1.611a.893.893 0 0 0-.391-.635.935.935 0 0 0-.781-.147c-.26.065-.472.212-.635.44-.162.195-.211.439-.146.732 0 .033-.13.065-.391.098-.228 0-.618.032-1.172.098-.52.032-1.009.081-1.464.146-1.888.358-3.793.57-5.713.635-.358 0-.733.049-1.123.146-.391.098-.635.163-.733.196a.618.618 0 0 1-.342 0c0-.033.196-.082.586-.147a82.851 82.851 0 0 1 2.442-.537c1.237-.293 2.604-.635 4.101-1.025 5.762-1.465 13.526-2.458 23.291-2.979l-1.269 2.686c-.944 1.953-1.66 3.45-2.149 4.492a625.991 625.991 0 0 0-2.05 4.297c-.879 1.823-1.595 3.239-2.149 4.248a207.217 207.217 0 0 1-1.806 3.222c-.652 1.107-1.189 1.905-1.612 2.393-.423.488-.765.716-1.025.684-.163-.033-.163-.277 0-.733.163-.456.456-1.058.879-1.806.423-.782.716-1.303.879-1.563.162-.293.358-.618.586-.977.26-.423.227-.813-.098-1.171-.195-.228-.423-.342-.684-.342-.26-.033-.504.049-.732.244l-8.057 7.08c.065-1.107 1.498-3.76 4.297-7.959a.851.851 0 0 0 .147-.732 1.088 1.088 0 0 0-.44-.635.936.936 0 0 0-.781-.147c-.261.033-.456.179-.586.44-3.744 6.152-5.192 9.798-4.346 10.937.716.944 2.751-.13 6.104-3.222a28.6 28.6 0 0 0 1.465-1.368c-.782 2.344-.44 3.646 1.025 3.907.911.195 2.067-.684 3.467-2.637 1.4-1.953 2.995-4.655 4.785-8.105-6.738 19.466-8.789 31.608-6.152 36.425.162.228.374.375.634.44a.83.83 0 0 0 .733-.049.89.89 0 0 0 .488-.635.953.953 0 0 0-.098-.732c-.553-1.042-.862-2.539-.927-4.492-.033-1.954.13-4.069.488-6.348.391-2.279.944-4.867 1.66-7.764.749-2.864 1.53-5.599 2.344-8.203a355.149 355.149 0 0 1 2.783-8.301 298.004 298.004 0 0 1 2.686-7.519c.813-2.084 1.627-4.151 2.441-6.201 3.223-.163 6.608-.261 10.156-.293 3.548-.033 6.625-.017 9.229.048 2.637.033 5.159.082 7.568.147 2.442.065 4.151.13 5.127.195.977.033 1.611.065 1.904.098.196 0 .375-.033.538-.098.162-.097.292-.211.39-.342.098-.162.147-.341.147-.537a.937.937 0 0 0-.293-.683c-.163-.228-.375-.342-.635-.342a174.92 174.92 0 0 0-4.932-.195c-2.181-.098-6.25-.196-12.207-.293-5.924-.098-11.312-.017-16.162.244.749-1.888 1.237-3.076 1.465-3.565a.967.967 0 0 0 .098-.439v-.098c-.033-.032-.049-.065-.049-.097v-.049c0-.033-.016-.049-.049-.049v-.147a3.131 3.131 0 0 0-.293-.341 1.92 1.92 0 0 0-.244-.098.87.87 0 0 0-.391-.098Z"/><path d="M162.744 271.773c.228.196.212.505-.049.928a8.625 8.625 0 0 0-.293.537 75.39 75.39 0 0 0-.537.928c-.228.456-.423.879-.586 1.27a9.878 9.878 0 0 0-.439 1.171c-.098.391-.114.717-.049.977s.228.391.488.391c.554.097 1.367-.505 2.442-1.807a17.23 17.23 0 0 0 1.904-2.832 4.284 4.284 0 0 1-1.416-.928c-1.4-1.204-1.921-2.702-1.563-4.492.261-1.562.993-2.751 2.198-3.564 1.237-.814 2.344-.814 3.32 0 1.042.846 1.449 2.213 1.221 4.101-.13 1.139-.472 2.393-1.026 3.76 2.442.521 5.811.391 10.108-.391a.936.936 0 0 1 .781.147c.228.163.358.39.391.683a.853.853 0 0 1-.147.733 1.172 1.172 0 0 1-.635.39c-4.752.879-8.528.961-11.328.245-.683 1.302-1.432 2.441-2.246 3.418-1.562 1.855-2.978 2.701-4.248 2.539-2.409-.261-2.832-2.214-1.269-5.86a7.924 7.924 0 0 1 .634-1.465c.261-.39.505-.667.733-.83.228-.162.439-.26.635-.293.227-.065.423-.065.586 0a.629.629 0 0 1 .39.244Zm3.711-.195c.521-1.237.83-2.344.928-3.32.163-1.172 0-1.953-.488-2.344-.228-.195-.538-.163-.928.098-.716.488-1.172 1.237-1.367 2.246-.196 1.074.114 1.969.927 2.685.261.228.57.44.928.635Z"/><path d="M185.352 271.822a1.087 1.087 0 0 1-.635.44 1.011 1.011 0 0 1-.733-.196 1.084 1.084 0 0 1-.439-.634.856.856 0 0 1 .146-.733c.977-1.465 1.416-2.441 1.319-2.929-.033-.098-.261-.098-.684 0-.879.13-1.79.553-2.734 1.269-.749.553-1.319 1.156-1.709 1.807-.391.651-.456 1.269-.195 1.855.26.684 1.025 1.872 2.294 3.565l.245.244c1.106-.456 2.246-.912 3.418-1.367a108.12 108.12 0 0 1 3.125-1.221 68.405 68.405 0 0 1 2.49-.928 56.927 56.927 0 0 1 1.758-.635c.39-.162.602-.244.634-.244a.852.852 0 0 1 .489-.049.851.851 0 0 1 .439.245.776.776 0 0 1 .342.439.94.94 0 0 1-.049.781 1.09 1.09 0 0 1-.586.489l-.195.097c-.13.033-.326.098-.586.195a9.124 9.124 0 0 0-.83.293c-.326.131-.7.277-1.123.44-.423.13-.879.293-1.367.488-.489.163-1.01.358-1.563.586-.553.195-1.107.407-1.66.635-.553.195-1.139.423-1.758.684-.618.227-1.221.472-1.807.732 1.107 1.595 1.661 2.93 1.661 4.004.032 1.4-.765 2.49-2.393 3.271-1.595.814-4.313 1.27-8.154 1.367-5.567.131-7.894-.585-6.983-2.148.912-1.628 5.176-4.069 12.793-7.324-1.334-1.758-2.181-3.06-2.539-3.906-.39-1.075-.325-2.133.196-3.174.52-1.074 1.334-2.018 2.441-2.832 1.204-.912 2.392-1.465 3.564-1.66 1.693-.293 2.686.227 2.979 1.562.228 1.074-.309 2.572-1.611 4.492Zm-2.295 10.401c0-.749-.521-1.84-1.563-3.272-7.031 2.93-10.156 4.769-9.375 5.518.261.26 1.042.374 2.344.342 5.762-.131 8.626-.993 8.594-2.588Z"/><path d="M219.58 272.018a.952.952 0 0 1 .732.097c.261.13.424.342.489.635a.85.85 0 0 1-.147.732.896.896 0 0 1-.586.44c-.097.032-.537.146-1.318.342-.781.195-1.855.488-3.223.879a97.018 97.018 0 0 0-4.101 1.171 52.692 52.692 0 0 0-4.004 1.319c-1.302.488-2.279.928-2.93 1.318-1.4.847-2.311.912-2.734.195-.228-.358-.179-1.009.146-1.953.716-2.083.814-3.759.293-5.029-.228-.586-.879-.358-1.953.684-1.074 1.009-2.327 2.522-3.76 4.541a765.263 765.263 0 0 0-3.222 4.492 176.48 176.48 0 0 0-1.758 2.637v.048c-.13.228-.342.358-.635.391a.953.953 0 0 1-.732-.098c-.423-.293-.554-.683-.391-1.171h-.049c4.004-12.598 7.536-22.673 10.596-30.225 3.092-7.552 5.648-12.809 7.666-15.772.749-1.106 1.449-1.92 2.1-2.441.683-.521 1.269-.749 1.757-.684.489.066.912.391 1.27.977.716 1.139.716 3.483 0 7.031-.456 2.279-1.172 4.72-2.148 7.324-.945 2.605-2.149 5.339-3.614 8.204-1.432 2.832-3.222 5.631-5.371 8.398-2.116 2.734-4.394 5.078-6.836 7.031-.325.944-.83 2.474-1.513 4.59 2.343-3.092 4.492-5.404 6.445-6.933 1.953-1.563 3.288-1.482 4.004.244.651 1.595.667 3.418.049 5.468 1.269-.651 3.222-1.383 5.859-2.197 2.669-.846 4.866-1.497 6.592-1.953 1.725-.456 2.734-.7 3.027-.732Zm-10.01-33.204c-3.385 4.981-7.763 15.284-13.134 30.909 2.571-2.539 4.931-5.55 7.08-9.034 2.148-3.515 3.808-6.803 4.98-9.863 1.205-3.06 2.083-5.941 2.637-8.642.618-2.995.7-4.867.244-5.616-.098-.13-.7.619-1.807 2.246Z"/><path d="M306.299 242.184c-.423 0-.733.195-.928.586-4.167 8.626-7.943 17.138-11.328 25.537-1.204.032-2.588.081-4.15.146-4.818.261-11.003.798-18.555 1.611a526.172 526.172 0 0 0 3.467-9.716c1.204-3.418 2.083-5.974 2.636-7.666.586-1.693.912-2.637.977-2.832.033-.098.049-.228.049-.391a.895.895 0 0 0-.391-.635.937.937 0 0 0-.683-.293c-7.032.489-14.763 1.546-23.194 3.174-18.978 3.678-30.827 8.789-35.547 15.332-2.669 3.711-2.864 7.813-.586 12.305.131.26.326.423.586.488a.826.826 0 0 0 .733-.049.873.873 0 0 0 .488-.586.947.947 0 0 0 0-.732c-3.971-7.813.83-14.29 14.404-19.434 9.799-3.711 22.722-6.396 38.77-8.056l2.978-.293a1271.291 1271.291 0 0 1-6.64 19.58 424.39 424.39 0 0 0-13.574 1.709c-4.069.553-6.267.895-6.592 1.025-1.856.879-2.425 2.1-1.709 3.662.325.716 1.367 1.953 3.125 3.711 1.041.977 1.855 1.791 2.441 2.442.586.651 1.319 1.546 2.197 2.685a15.993 15.993 0 0 1 2.1 3.565 14.336 14.336 0 0 1 1.025 3.857c.521 3.776 2.588 1.725 6.202-6.152 1.692-3.711 3.678-8.594 5.957-14.649 7.975-.846 14.453-1.4 19.433-1.66a59.367 59.367 0 0 1 3.272-.098c-8.269 20.834-10.287 31.95-6.055 33.35.358.098.749.13 1.172.098a.79.79 0 0 0 .683-.342.787.787 0 0 0 .245-.684c-.033-.586-.375-.911-1.026-.976-2.604-.196-2.213-5.567 1.172-16.114 1.465-4.589 3.369-9.716 5.713-15.38.879 0 1.628.032 2.246.097.261.033.781-.13 1.563-.488.097-.033.13-.016.097.049-.032.065-.309.244-.83.537-.26.13-.439.325-.537.586-.065.26-.032.521.098.781.13.228.325.391.586.488.26.065.521.033.781-.097.944-.489 1.514-.977 1.709-1.465.618-1.367-.488-2.165-3.32-2.393a22.526 22.526 0 0 0-1.563-.049 609.014 609.014 0 0 1 5.274-12.06c1.92-4.232 3.32-7.292 4.199-9.18.911-1.888 1.481-3.043 1.709-3.467.097-.26.097-.52 0-.781a.874.874 0 0 0-.489-.586.865.865 0 0 0-.39-.097Zm-37.647 30.127c-2.832 8.17-5.273 13.932-7.324 17.285-.846 1.302-1.351 1.709-1.514 1.22-.39-1.432-.846-2.701-1.367-3.808a15.245 15.245 0 0 0-1.806-3.076 40.991 40.991 0 0 0-1.807-2.246 65.302 65.302 0 0 0-2.148-2.149c-.293-.26-.505-.456-.635-.586-1.595-1.562-2.507-2.604-2.735-3.125-.162-.358.082-.683.733-.976.293-.163 2.295-.489 6.006-.977a473.039 473.039 0 0 1 12.597-1.562Z"/><path d="M333.789 247.359c-.391 0-.716.212-.977.635a843.642 843.642 0 0 1-2.929 4.785c-9.831.554-17.643 1.563-23.438 3.028-1.627.423-3.027.83-4.199 1.22-1.172.391-2.083.765-2.734 1.123-.651.326-1.107.651-1.367.977-.261.293-.359.57-.293.83.227.879 1.627 1.27 4.199 1.172a38.984 38.984 0 0 0 6.006-.684c1.497-.26 2.669-.618 3.515-1.074.847-.456 1.221-.993 1.123-1.611a1.082 1.082 0 0 0-.439-.635.85.85 0 0 0-.733-.146.887.887 0 0 0-.634.39.936.936 0 0 0-.147.781c0 .033-.13.065-.39.098a10.4 10.4 0 0 0-1.172.098c-.521.032-1.009.081-1.465.146-1.953.358-3.858.57-5.713.635-.391 0-.781.049-1.172.146-.391.098-.635.163-.732.196-.131.032-.228.032-.293 0 0-.033.195-.082.586-.147.39-.097 1.204-.276 2.441-.537 1.237-.293 2.604-.635 4.102-1.025 5.436-1.4 12.662-2.36 21.679-2.881-5.664 9.017-9.798 14.762-12.402 17.236-.716.684-1.204 1.042-1.465 1.074v-.048c.065-.065.098-.131.098-.196-.13-1.009.228-2.913 1.074-5.713.163-.553.065-.976-.293-1.269-.195-.163-.439-.212-.732-.147a1.235 1.235 0 0 0-.733.489c0 .13-.439.7-1.318 1.709a1.623 1.623 0 0 0-.196-.635c-.423-.586-.895-1.009-1.416-1.27a3.244 3.244 0 0 0-1.66-.341 5.12 5.12 0 0 0-1.66.39 6.848 6.848 0 0 0-1.66.879 11.662 11.662 0 0 0-2.637 2.734c-.814 1.237-1.172 2.344-1.074 3.321.13 1.4 1.025 2.018 2.686 1.855 2.539-.228 5.11-1.595 7.714-4.101-.195 1.172-.26 2.116-.195 2.832.163 1.302.749 1.937 1.758 1.904.781-.033 1.741-.602 2.881-1.709 2.441-2.311 6.103-7.259 10.986-14.844a205.69 205.69 0 0 0-2.734 7.325 598.394 598.394 0 0 0-2.637 8.007 126.96 126.96 0 0 0-2.295 8.301 123.417 123.417 0 0 0-1.465 7.568c-.39 2.474-.537 4.688-.439 6.641.13 1.953.504 3.516 1.123 4.688.13.227.325.374.586.439.293.098.553.081.781-.049.228-.13.374-.342.44-.635a.827.827 0 0 0-.049-.732c-.456-.814-.749-1.872-.879-3.174-.13-1.302-.13-2.734 0-4.297.13-1.53.374-3.255.732-5.175a84.572 84.572 0 0 1 1.27-5.713 152.814 152.814 0 0 1 1.709-6.055c.651-2.148 1.286-4.15 1.904-6.006a436.22 436.22 0 0 1 2.051-5.81c.748-2.019 1.4-3.76 1.953-5.225a626.786 626.786 0 0 1 1.758-4.443c3.287-.163 6.754-.261 10.4-.293a319.93 319.93 0 0 1 9.473-.049c2.702.032 5.306.097 7.812.195 2.507.065 4.265.13 5.274.195 1.041.033 1.709.066 2.002.098.293 0 .537-.081.732-.244a.938.938 0 0 0 .293-.684.849.849 0 0 0-.244-.732.793.793 0 0 0-.684-.342c-1.041-.065-2.718-.13-5.029-.195-2.311-.098-6.527-.195-12.646-.293-6.088-.098-11.605 0-16.553.293a101.458 101.458 0 0 1 1.513-3.565c.131-.293.163-.586.098-.879-.032-.293-.146-.52-.342-.683a.788.788 0 0 0-.488-.147Zm-24.512 20.85c.684 0 1.237.309 1.661.928.13.162.292.26.488.293-2.084 1.888-4.102 2.929-6.055 3.125-.488.032-.749 0-.781-.098-.033-.293.163-.765.586-1.416a8.761 8.761 0 0 1 1.953-2.002c.781-.553 1.497-.83 2.148-.83Z"/><path d="M357.227 272.018a.953.953 0 0 1 .732.097.89.89 0 0 1 .488.635.85.85 0 0 1-.146.732.898.898 0 0 1-.586.44c-.098.032-.537.146-1.319.342-.781.195-1.855.488-3.222.879a97.06 97.06 0 0 0-4.102 1.171 52.692 52.692 0 0 0-4.004 1.319c-1.302.488-2.278.928-2.929 1.318-1.4.847-2.312.912-2.735.195-.228-.358-.179-1.009.147-1.953.716-2.083.814-3.759.293-5.029-.228-.586-.879-.358-1.953.684-1.075 1.009-2.328 2.522-3.76 4.541a776.089 776.089 0 0 0-3.223 4.492 193.565 193.565 0 0 0-1.758 2.637v.048c-.13.228-.341.358-.634.391a.955.955 0 0 1-.733-.098c-.423-.293-.553-.683-.39-1.171h-.049c4.004-12.598 7.536-22.673 10.595-30.225 3.093-7.552 5.648-12.809 7.666-15.772.749-1.106 1.449-1.92 2.1-2.441.684-.521 1.27-.749 1.758-.684.488.066.911.391 1.269.977.717 1.139.717 3.483 0 7.031-.455 2.279-1.171 4.72-2.148 7.324-.944 2.605-2.148 5.339-3.613 8.204-1.433 2.832-3.223 5.631-5.371 8.398-2.116 2.734-4.395 5.078-6.836 7.031-.326.944-.83 2.474-1.514 4.59 2.344-3.092 4.492-5.404 6.445-6.933 1.953-1.563 3.288-1.482 4.004.244.651 1.595.668 3.418.049 5.468 1.27-.651 3.223-1.383 5.859-2.197 2.67-.846 4.867-1.497 6.592-1.953 1.725-.456 2.735-.7 3.028-.732Zm-10.01-33.204c-3.386 4.981-7.764 15.284-13.135 30.909 2.572-2.539 4.932-5.55 7.08-9.034 2.149-3.515 3.809-6.803 4.981-9.863 1.204-3.06 2.083-5.941 2.636-8.642.619-2.995.7-4.867.244-5.616-.097-.13-.699.619-1.806 2.246Z"/><path d="M364.16 262.74h-.244a4.158 4.158 0 0 0-1.025.489 5.998 5.998 0 0 0-.879.634 7.357 7.357 0 0 0-.83.879c-.261.326-.472.602-.635.83-.163.228-.342.505-.537.83-.163.293-.261.472-.293.537 0 .033-.033.098-.098.196a.943.943 0 0 0-.049.781c.098.26.261.456.489.586.26.098.52.098.781 0 .26-.098.456-.26.586-.488 0-.065.13-.326.39-.782.261-.455.635-.96 1.123-1.513.489-.586.977-.928 1.465-1.026a.894.894 0 0 0 .586-.439.853.853 0 0 0 .147-.733c-.13-.553-.456-.813-.977-.781Zm-4.931 7.227c-.293 0-.554.114-.782.342-1.334 1.627-2.213 3.043-2.636 4.248-.293.846-.359 1.562-.196 2.148.163.781.602 1.335 1.319 1.66.52.228 1.123.342 1.806.342 1.302 0 3.207-.472 5.713-1.416.977-.391 1.97-.814 2.979-1.27a38.745 38.745 0 0 0 2.588-1.269c.716-.391 1.237-.7 1.562-.928a.893.893 0 0 0 .391-.635.851.851 0 0 0-.147-.732.927.927 0 0 0-.683-.391.733.733 0 0 0-.684.147c-1.335.944-3.564 2.002-6.689 3.174-2.279.879-3.956 1.318-5.03 1.318-.423 0-.732-.049-.928-.146a.441.441 0 0 1-.244-.293c-.065-.261-.016-.603.147-1.026.325-1.009 1.09-2.23 2.295-3.662a.854.854 0 0 0 .195-.683.926.926 0 0 0-.342-.733c-.162-.13-.374-.195-.634-.195Z"/><path d="M374.268 271.529c.227.033.423.131.586.293a.66.66 0 0 1 .195.586.87.87 0 0 1-.098.391 1.962 1.962 0 0 1-.244.293.615.615 0 0 1-.293.146 1.073 1.073 0 0 1-.342.049c-1.432.033-2.702.733-3.808 2.1-.782 1.009-.993 1.692-.635 2.051.195.227.602.211 1.221-.049.358-.131.862-.554 1.513-1.27 1.172-1.237 2.588-3.109 4.248-5.615.782-2.93 1.693-5.99 2.735-9.18 1.627-5.013 3.287-9.505 4.98-13.476 1.693-4.004 3.093-6.608 4.199-7.813 1.01-1.074 1.872-1.269 2.588-.586.261.228.456.521.586.879.261.846.147 2.23-.342 4.151-.488 1.888-1.237 4.003-2.246 6.347-.976 2.344-2.148 4.85-3.515 7.52-2.409 4.687-4.867 8.935-7.373 12.744-.782 2.93-1.368 5.469-1.758 7.617-.391 2.148-.521 3.711-.391 4.688 0 .097-.032.227-.097.39v.049a.88.88 0 0 1 .634.146c.196.131.31.31.342.538a.782.782 0 0 1-.195.634c-.163.228-.358.375-.586.44-1.074.228-1.693-.375-1.856-1.807-.195-1.562.196-4.492 1.172-8.789a33.166 33.166 0 0 1-1.904 2.246c-.846.944-1.579 1.53-2.197 1.758-1.465.618-2.588.57-3.369-.146-.554-.456-.814-1.107-.782-1.954.065-1.627.733-2.946 2.002-3.955 1.302-1.041 2.979-1.513 5.03-1.416Zm5.664-6.396a161.689 161.689 0 0 0 4.052-7.422c2.051-4.004 3.646-7.52 4.786-10.547 1.139-3.06 1.546-5.094 1.22-6.103-.032-.131-.065-.212-.097-.245l-.049.049-.098.293c-1.009 1.074-2.327 3.548-3.955 7.422-1.595 3.841-3.19 8.203-4.785 13.086-.423 1.335-.781 2.49-1.074 3.467Z"/><path d="M389.99 271.822c.098.13.163.277.196.44.878-1.009 1.318-1.563 1.318-1.66a.89.89 0 0 1 .635-.391c.293-.065.553-.033.781.098.325.26.472.586.439.976a490.879 490.879 0 0 0-.586 4.395c-.065.781-.048 1.22.049 1.318.261.033 1.384-.521 3.369-1.66 2.377-1.367 4.379-2.442 6.006-3.223a.83.83 0 0 1 .733-.049c.293.098.488.277.586.538.13.227.146.472.048.732-.097.26-.26.456-.488.586-1.53.749-3.483 1.79-5.859 3.125-.912.553-1.579.944-2.002 1.172a8.036 8.036 0 0 1-1.416.586c-.488.162-.895.228-1.221.195-.716-.098-1.204-.505-1.465-1.221-.228-.716-.276-1.855-.146-3.418-2.702 2.767-5.42 4.297-8.155 4.59-1.725.163-2.669-.472-2.832-1.904-.065-.879.277-1.872 1.026-2.979a10.13 10.13 0 0 1 2.49-2.636 14.69 14.69 0 0 1 1.123-.684 4.728 4.728 0 0 1 1.123-.439 3.666 3.666 0 0 1 1.172-.196c.391 0 .765.065 1.123.196.358.097.7.276 1.025.537.359.26.668.586.928.976Zm-.928 1.612c-.26-.033-.488-.179-.683-.44-.814-1.139-2.051-1.123-3.711.049a8.765 8.765 0 0 0-2.002 2.1c-.488.748-.716 1.318-.684 1.709.033.097.245.13.635.097 2.116-.228 4.265-1.4 6.445-3.515Z"/><path d="M401.855 275.631a.78.78 0 0 1 0 .39 1.862 1.862 0 0 1-.146.391 1.972 1.972 0 0 1-.244.293 1.105 1.105 0 0 1-1.123.049 1.084 1.084 0 0 1-.44-.635c-.097-.293-.048-.667.147-1.123.228-.488.618-1.074 1.172-1.758a69.163 69.163 0 0 1 1.465-1.758l1.953-2.099c.813-.846 1.416-1.481 1.806-1.904a7.892 7.892 0 0 0-.732-.049c-.912-.065-1.595-.196-2.051-.391-1.172-.586-1.335-1.335-.488-2.246.488-.586 1.725-1.221 3.711-1.904 2.506-.912 3.955-.814 4.345.293.196.488.033 1.172-.488 2.05 1.432-.195 2.393-.439 2.881-.732.716-.391 1.253-.277 1.611.342.065.228.098.439.098.635 0 .195-.081.455-.244.781a26.15 26.15 0 0 1-.488.928 9.44 9.44 0 0 1-.684.927c-.26.358-.505.668-.732.928-.228.26-.472.553-.733.879-.26.293-.472.537-.635.732-4.101 5.339-6.412 8.578-6.933 9.717 1.985-.716 4.28-1.839 6.885-3.369 3.352-1.953 5.55-3.483 6.591-4.59a.94.94 0 0 1 .684-.293c.293 0 .537.098.732.293.196.163.293.391.293.684a.783.783 0 0 1-.244.683c-1.172 1.27-3.515 2.93-7.031 4.981-2.897 1.66-5.453 2.864-7.666 3.613-1.204.423-1.969.163-2.295-.781-.13-.423-.016-1.074.342-1.953.39-.847 1.041-1.921 1.953-3.223a107.793 107.793 0 0 1 2.344-3.32c.683-.912 1.611-2.132 2.783-3.662.586-.782 1.383-1.628 2.392-2.539-1.074.227-2.229.39-3.466.488-.619.716-1.644 1.839-3.076 3.369-2.898 3.092-4.314 4.72-4.249 4.883Zm6.397-10.205c.814-.912 1.188-1.433 1.123-1.563 0-.032-.065-.016-.195.049-.098.065-.31.195-.635.391a6.127 6.127 0 0 1-1.025.439c-.652.228-1.221.456-1.709.684h.048c.684.065 1.481.065 2.393 0Z"/><path d="M426.27 271.822c.097.13.162.277.195.44.879-1.009 1.318-1.563 1.318-1.66a.892.892 0 0 1 .635-.391c.293-.065.553-.033.781.098.326.26.472.586.44.976a455.13 455.13 0 0 0-.586 4.395c-.065.781-.049 1.22.049 1.318.26.033 1.383-.521 3.369-1.66 2.376-1.367 4.378-2.442 6.006-3.223a.827.827 0 0 1 .732-.049c.293.098.488.277.586.538.13.227.146.472.049.732-.098.26-.261.456-.489.586-1.529.749-3.483 1.79-5.859 3.125-.911.553-1.579.944-2.002 1.172a8.036 8.036 0 0 1-1.416.586c-.488.162-.895.228-1.221.195-.716-.098-1.204-.505-1.464-1.221-.228-.716-.277-1.855-.147-3.418-2.702 2.767-5.42 4.297-8.154 4.59-1.725.163-2.669-.472-2.832-1.904-.065-.879.276-1.872 1.025-2.979a10.146 10.146 0 0 1 2.49-2.636 14.69 14.69 0 0 1 1.123-.684 4.744 4.744 0 0 1 1.123-.439 3.67 3.67 0 0 1 1.172-.196c.391 0 .765.065 1.123.196.358.097.7.276 1.026.537.358.26.667.586.928.976Zm-.928 1.612c-.261-.033-.488-.179-.684-.44-.814-1.139-2.051-1.123-3.711.049a8.785 8.785 0 0 0-2.002 2.1c-.488.748-.716 1.318-.683 1.709.032.097.244.13.634.097 2.116-.228 4.265-1.4 6.446-3.515Z"/></mask><path stroke="#fff" stroke-width="6" d="M32.52 293.502a1.13 1.13 0 0 1-.83.342c-.294 0-.554-.114-.782-.342a1.233 1.233 0 0 1-.293-.83c0-.293.114-.554.342-.781 3.027-2.995 8.35-8.041 15.967-15.137-2.181.26-4.509.602-6.983 1.025-14.713 2.572-27.441 6.853-38.183 12.842-.26.163-.554.195-.88.098-.292-.065-.52-.244-.683-.537a1.047 1.047 0 0 1-.049-.83 1.25 1.25 0 0 1 .538-.684c10.937-6.12 23.91-10.482 38.916-13.086a172.654 172.654 0 0 1 10.107-1.416c23.372-21.68 38.428-33.789 45.166-36.328 2.409-.912 3.939-.521 4.59 1.172.358.944.31 2.376-.147 4.297-.455 1.888-1.383 4.362-2.783 7.422-1.367 3.027-2.571 5.566-3.613 7.617-1.01 2.05-2.49 4.948-4.443 8.691a582.815 582.815 0 0 0-3.272 6.348c.651.032 1.53.097 2.637.195 2.441.195 4.199.521 5.273.977 1.075.455 1.579 1.041 1.514 1.757-.033.359-.228.717-.586 1.075-.326.358-.879.732-1.66 1.123-.781.39-1.465.7-2.051.927-.586.261-1.465.619-2.637 1.075-2.701 1.041-4.606 1.823-5.713 2.343-1.106.554-1.871.391-2.294-.488-.424-.814.26-3.141 2.05-6.982-10.514-.521-20.882-.228-31.103.879-8.496 7.91-14.535 13.655-18.115 17.236Zm63.134-53.613c-6.282 2.409-20.377 13.704-42.285 33.886a202.05 202.05 0 0 1 29.444-.586c.65-1.269 1.888-3.662 3.71-7.177a1099.86 1099.86 0 0 0 2.833-5.469c.65-1.27 1.513-2.995 2.587-5.176 1.107-2.213 1.954-3.987 2.54-5.322a97.122 97.122 0 0 0 1.757-4.297c.619-1.53 1.01-2.767 1.172-3.711.163-.976.147-1.709-.049-2.197-.13-.358-.7-.342-1.709.049Zm-11.572 35.644c-1.204 2.442-1.953 4.102-2.246 4.981 1.042-.489 2.718-1.188 5.03-2.1 3.678-1.4 5.517-2.148 5.517-2.246 0-.033-.13-.049-.39-.049-.261-.032-.815-.065-1.661-.098a132.83 132.83 0 0 1-2.685-.244 75.061 75.061 0 0 0-3.565-.244Z" mask="url(#path-5-inside-1)" style="stroke-dasharray:800;stroke-dashoffset:800;-webkit-animation:dash 1s linear forwards .5s;-o-animation:dash 1s linear forwards .5s;-moz-animation:dash 1s linear forwards .5s;animation:dash 1s linear forwards .5s"/><path stroke="#fff" stroke-width="6" d="M106.006 271.822a1.084 1.084 0 0 1-.635.44 1.01 1.01 0 0 1-.732-.196 1.081 1.081 0 0 1-.44-.634.853.853 0 0 1 .147-.733c.976-1.465 1.416-2.441 1.318-2.929-.032-.098-.26-.098-.684 0-.878.13-1.79.553-2.734 1.269-.749.553-1.318 1.156-1.709 1.807s-.456 1.269-.195 1.855c.26.684 1.025 1.872 2.295 3.565l.244.244c1.107-.456 2.246-.912 3.418-1.367a108.12 108.12 0 0 1 3.125-1.221 68.405 68.405 0 0 1 2.49-.928 56.927 56.927 0 0 1 1.758-.635c.391-.162.602-.244.635-.244a.848.848 0 0 1 .488-.049.847.847 0 0 1 .439.245.776.776 0 0 1 .342.439.936.936 0 0 1-.049.781 1.09 1.09 0 0 1-.586.489l-.195.097c-.13.033-.325.098-.586.195a9.232 9.232 0 0 0-.83.293c-.325.131-.7.277-1.123.44-.423.13-.879.293-1.367.488-.488.163-1.009.358-1.563.586-.553.195-1.106.407-1.66.635-.553.195-1.139.423-1.758.684-.618.227-1.22.472-1.806.732 1.107 1.595 1.66 2.93 1.66 4.004.032 1.4-.765 2.49-2.393 3.271-1.595.814-4.313 1.27-8.154 1.367-5.566.131-7.894-.585-6.982-2.148.911-1.628 5.175-4.069 12.793-7.324-1.335-1.758-2.181-3.06-2.54-3.906-.39-1.075-.325-2.133.196-3.174.52-1.074 1.335-2.018 2.441-2.832 1.205-.912 2.393-1.465 3.565-1.66 1.692-.293 2.685.227 2.978 1.562.228 1.074-.309 2.572-1.611 4.492Zm-2.295 10.401c0-.749-.521-1.84-1.563-3.272-7.03 2.93-10.156 4.769-9.375 5.518.26.26 1.042.374 2.344.342 5.762-.131 8.626-.993 8.594-2.588Z" mask="url(#path-5-inside-1)" style="-webkit-animation:dash 1s linear forwards .7s;-o-animation:dash 1s linear forwards .7s;-moz-animation:dash 1s linear forwards .7s;animation:dash 1s linear forwards .7s;stroke-dasharray:800;stroke-dashoffset:800"/><path stroke="#fff" stroke-width="6" d="M140.234 272.018a.955.955 0 0 1 .733.097.89.89 0 0 1 .488.635.854.854 0 0 1-.146.732.9.9 0 0 1-.586.44c-.098.032-.537.146-1.319.342-.781.195-1.855.488-3.222.879a96.636 96.636 0 0 0-4.102 1.171 52.692 52.692 0 0 0-4.004 1.319c-1.302.488-2.278.928-2.93 1.318-1.399.847-2.311.912-2.734.195-.228-.358-.179-1.009.147-1.953.716-2.083.813-3.759.293-5.029-.228-.586-.879-.358-1.954.684-1.074 1.009-2.327 2.522-3.759 4.541a729.659 729.659 0 0 0-3.223 4.492 176.48 176.48 0 0 0-1.758 2.637v.048c-.13.228-.342.358-.635.391a.953.953 0 0 1-.732-.098c-.423-.293-.553-.683-.391-1.171h-.048c4.003-12.598 7.535-22.673 10.595-30.225 3.093-7.552 5.648-12.809 7.666-15.772.749-1.106 1.449-1.92 2.1-2.441.683-.521 1.269-.749 1.758-.684.488.066.911.391 1.269.977.716 1.139.716 3.483 0 7.031-.455 2.279-1.172 4.72-2.148 7.324-.944 2.605-2.149 5.339-3.613 8.204-1.433 2.832-3.223 5.631-5.372 8.398-2.115 2.734-4.394 5.078-6.836 7.031-.325.944-.83 2.474-1.513 4.59 2.344-3.092 4.492-5.404 6.445-6.933 1.953-1.563 3.288-1.482 4.004.244.651 1.595.667 3.418.049 5.468 1.269-.651 3.223-1.383 5.859-2.197 2.67-.846 4.867-1.497 6.592-1.953 1.725-.456 2.734-.7 3.027-.732Zm-10.009-33.204c-3.386 4.981-7.764 15.284-13.135 30.909 2.571-2.539 4.931-5.55 7.08-9.034 2.148-3.515 3.809-6.803 4.98-9.863 1.205-3.06 2.084-5.941 2.637-8.642.619-2.995.7-4.867.244-5.616-.097-.13-.7.619-1.806 2.246Z" mask="url(#path-5-inside-1)" style="-webkit-animation:dash 1s linear forwards .9s;-o-animation:dash 1s linear forwards .9s;-moz-animation:dash 1s linear forwards .9s;animation:dash 1s linear forwards .9s;stroke-dasharray:800;stroke-dashoffset:800"/><path stroke="#fff" stroke-width="6" d="M163.574 247.359c-.358 0-.635.163-.83.489-.488.683-1.318 2.229-2.49 4.638-10.417.521-18.669 1.547-24.756 3.077-2.148.553-3.89 1.09-5.225 1.611-1.334.521-2.246.993-2.734 1.416-.521.39-.732.765-.635 1.123.228.879 1.628 1.269 4.2 1.172a37.224 37.224 0 0 0 6.005-.684c1.498-.26 2.67-.618 3.516-1.074.879-.456 1.253-.993 1.123-1.611a.893.893 0 0 0-.391-.635.935.935 0 0 0-.781-.147c-.26.065-.472.212-.635.44-.162.195-.211.439-.146.732 0 .033-.13.065-.391.098-.228 0-.618.032-1.172.098-.52.032-1.009.081-1.464.146-1.888.358-3.793.57-5.713.635-.358 0-.733.049-1.123.146-.391.098-.635.163-.733.196a.618.618 0 0 1-.342 0c0-.033.196-.082.586-.147a82.851 82.851 0 0 1 2.442-.537c1.237-.293 2.604-.635 4.101-1.025 5.762-1.465 13.526-2.458 23.291-2.979l-1.269 2.686c-.944 1.953-1.66 3.45-2.149 4.492a625.991 625.991 0 0 0-2.05 4.297c-.879 1.823-1.595 3.239-2.149 4.248a207.217 207.217 0 0 1-1.806 3.222c-.652 1.107-1.189 1.905-1.612 2.393-.423.488-.765.716-1.025.684-.163-.033-.163-.277 0-.733.163-.456.456-1.058.879-1.806.423-.782.716-1.303.879-1.563.162-.293.358-.618.586-.977.26-.423.227-.813-.098-1.171-.195-.228-.423-.342-.684-.342-.26-.033-.504.049-.732.244l-8.057 7.08c.065-1.107 1.498-3.76 4.297-7.959a.851.851 0 0 0 .147-.732 1.088 1.088 0 0 0-.44-.635.936.936 0 0 0-.781-.147c-.261.033-.456.179-.586.44-3.744 6.152-5.192 9.798-4.346 10.937.716.944 2.751-.13 6.104-3.222a28.6 28.6 0 0 0 1.465-1.368c-.782 2.344-.44 3.646 1.025 3.907.911.195 2.067-.684 3.467-2.637 1.4-1.953 2.995-4.655 4.785-8.105-6.738 19.466-8.789 31.608-6.152 36.425.162.228.374.375.634.44a.83.83 0 0 0 .733-.049.89.89 0 0 0 .488-.635.953.953 0 0 0-.098-.732c-.553-1.042-.862-2.539-.927-4.492-.033-1.954.13-4.069.488-6.348.391-2.279.944-4.867 1.66-7.764.749-2.864 1.53-5.599 2.344-8.203a355.149 355.149 0 0 1 2.783-8.301 298.004 298.004 0 0 1 2.686-7.519c.813-2.084 1.627-4.151 2.441-6.201 3.223-.163 6.608-.261 10.156-.293 3.548-.033 6.625-.017 9.229.048 2.637.033 5.159.082 7.568.147 2.442.065 4.151.13 5.127.195.977.033 1.611.065 1.904.098.196 0 .375-.033.538-.098.162-.097.292-.211.39-.342.098-.162.147-.341.147-.537a.937.937 0 0 0-.293-.683c-.163-.228-.375-.342-.635-.342a174.92 174.92 0 0 0-4.932-.195c-2.181-.098-6.25-.196-12.207-.293-5.924-.098-11.312-.017-16.162.244.749-1.888 1.237-3.076 1.465-3.565a.967.967 0 0 0 .098-.439v-.098c-.033-.032-.049-.065-.049-.097v-.049c0-.033-.016-.049-.049-.049v-.147a3.131 3.131 0 0 0-.293-.341 1.92 1.92 0 0 0-.244-.098.87.87 0 0 0-.391-.098Z" mask="url(#path-5-inside-1)" style="stroke-dasharray:800;stroke-dashoffset:800;-webkit-animation:dash 1s linear forwards 1.1s;-o-animation:dash 1s linear forwards 1.1s;-moz-animation:dash 1s linear forwards 1.1s;animation:dash 1s linear forwards 1.1s"/><path stroke="#fff" stroke-width="6" d="M162.744 271.773c.228.196.212.505-.049.928a8.625 8.625 0 0 0-.293.537 75.39 75.39 0 0 0-.537.928c-.228.456-.423.879-.586 1.27a9.878 9.878 0 0 0-.439 1.171c-.098.391-.114.717-.049.977s.228.391.488.391c.554.097 1.367-.505 2.442-1.807a17.23 17.23 0 0 0 1.904-2.832 4.284 4.284 0 0 1-1.416-.928c-1.4-1.204-1.921-2.702-1.563-4.492.261-1.562.993-2.751 2.198-3.564 1.237-.814 2.344-.814 3.32 0 1.042.846 1.449 2.213 1.221 4.101-.13 1.139-.472 2.393-1.026 3.76 2.442.521 5.811.391 10.108-.391a.936.936 0 0 1 .781.147c.228.163.358.39.391.683a.853.853 0 0 1-.147.733 1.172 1.172 0 0 1-.635.39c-4.752.879-8.528.961-11.328.245-.683 1.302-1.432 2.441-2.246 3.418-1.562 1.855-2.978 2.701-4.248 2.539-2.409-.261-2.832-2.214-1.269-5.86a7.924 7.924 0 0 1 .634-1.465c.261-.39.505-.667.733-.83.228-.162.439-.26.635-.293.227-.065.423-.065.586 0a.629.629 0 0 1 .39.244Zm3.711-.195c.521-1.237.83-2.344.928-3.32.163-1.172 0-1.953-.488-2.344-.228-.195-.538-.163-.928.098-.716.488-1.172 1.237-1.367 2.246-.196 1.074.114 1.969.927 2.685.261.228.57.44.928.635Z" mask="url(#path-5-inside-1)" style="-webkit-animation:dash 1s linear forwards 1.3s;-o-animation:dash 1s linear forwards 1.3s;-moz-animation:dash 1s linear forwards 1.3s;animation:dash 1s linear forwards 1.3s;stroke-dasharray:800;stroke-dashoffset:800"/><path stroke="#fff" stroke-width="6" d="M185.352 271.822a1.087 1.087 0 0 1-.635.44 1.011 1.011 0 0 1-.733-.196 1.084 1.084 0 0 1-.439-.634.856.856 0 0 1 .146-.733c.977-1.465 1.416-2.441 1.319-2.929-.033-.098-.261-.098-.684 0-.879.13-1.79.553-2.734 1.269-.749.553-1.319 1.156-1.709 1.807-.391.651-.456 1.269-.195 1.855.26.684 1.025 1.872 2.294 3.565l.245.244c1.106-.456 2.246-.912 3.418-1.367a108.12 108.12 0 0 1 3.125-1.221 68.405 68.405 0 0 1 2.49-.928 56.927 56.927 0 0 1 1.758-.635c.39-.162.602-.244.634-.244a.852.852 0 0 1 .489-.049.851.851 0 0 1 .439.245.776.776 0 0 1 .342.439.94.94 0 0 1-.049.781 1.09 1.09 0 0 1-.586.489l-.195.097c-.13.033-.326.098-.586.195a9.124 9.124 0 0 0-.83.293c-.326.131-.7.277-1.123.44-.423.13-.879.293-1.367.488-.489.163-1.01.358-1.563.586-.553.195-1.107.407-1.66.635-.553.195-1.139.423-1.758.684-.618.227-1.221.472-1.807.732 1.107 1.595 1.661 2.93 1.661 4.004.032 1.4-.765 2.49-2.393 3.271-1.595.814-4.313 1.27-8.154 1.367-5.567.131-7.894-.585-6.983-2.148.912-1.628 5.176-4.069 12.793-7.324-1.334-1.758-2.181-3.06-2.539-3.906-.39-1.075-.325-2.133.196-3.174.52-1.074 1.334-2.018 2.441-2.832 1.204-.912 2.392-1.465 3.564-1.66 1.693-.293 2.686.227 2.979 1.562.228 1.074-.309 2.572-1.611 4.492Zm-2.295 10.401c0-.749-.521-1.84-1.563-3.272-7.031 2.93-10.156 4.769-9.375 5.518.261.26 1.042.374 2.344.342 5.762-.131 8.626-.993 8.594-2.588Z" mask="url(#path-5-inside-1)" style="-webkit-animation:dash 1s linear forwards 1.5s;-o-animation:dash 1s linear forwards 1.5s;-moz-animation:dash 1s linear forwards 1.5s;animation:dash 1s linear forwards 1.5s;stroke-dasharray:800;stroke-dashoffset:800"/><path stroke="#fff" stroke-width="6" d="M219.58 272.018a.952.952 0 0 1 .732.097c.261.13.424.342.489.635a.85.85 0 0 1-.147.732.896.896 0 0 1-.586.44c-.097.032-.537.146-1.318.342-.781.195-1.855.488-3.223.879a97.018 97.018 0 0 0-4.101 1.171 52.692 52.692 0 0 0-4.004 1.319c-1.302.488-2.279.928-2.93 1.318-1.4.847-2.311.912-2.734.195-.228-.358-.179-1.009.146-1.953.716-2.083.814-3.759.293-5.029-.228-.586-.879-.358-1.953.684-1.074 1.009-2.327 2.522-3.76 4.541a765.263 765.263 0 0 0-3.222 4.492 176.48 176.48 0 0 0-1.758 2.637v.048c-.13.228-.342.358-.635.391a.953.953 0 0 1-.732-.098c-.423-.293-.554-.683-.391-1.171h-.049c4.004-12.598 7.536-22.673 10.596-30.225 3.092-7.552 5.648-12.809 7.666-15.772.749-1.106 1.449-1.92 2.1-2.441.683-.521 1.269-.749 1.757-.684.489.066.912.391 1.27.977.716 1.139.716 3.483 0 7.031-.456 2.279-1.172 4.72-2.148 7.324-.945 2.605-2.149 5.339-3.614 8.204-1.432 2.832-3.222 5.631-5.371 8.398-2.116 2.734-4.394 5.078-6.836 7.031-.325.944-.83 2.474-1.513 4.59 2.343-3.092 4.492-5.404 6.445-6.933 1.953-1.563 3.288-1.482 4.004.244.651 1.595.667 3.418.049 5.468 1.269-.651 3.222-1.383 5.859-2.197 2.669-.846 4.866-1.497 6.592-1.953 1.725-.456 2.734-.7 3.027-.732Zm-10.01-33.204c-3.385 4.981-7.763 15.284-13.134 30.909 2.571-2.539 4.931-5.55 7.08-9.034 2.148-3.515 3.808-6.803 4.98-9.863 1.205-3.06 2.083-5.941 2.637-8.642.618-2.995.7-4.867.244-5.616-.098-.13-.7.619-1.807 2.246Z" mask="url(#path-5-inside-1)" style="-webkit-animation:dash 1s linear forwards 1.7s;-o-animation:dash 1s linear forwards 1.7s;-moz-animation:dash 1s linear forwards 1.7s;animation:dash 1s linear forwards 1.7s;stroke-dasharray:800;stroke-dashoffset:800"/><path stroke="#fff" stroke-width="6" d="M306.299 242.184c-.423 0-.733.195-.928.586-4.167 8.626-7.943 17.138-11.328 25.537-1.204.032-2.588.081-4.15.146-4.818.261-11.003.798-18.555 1.611a526.172 526.172 0 0 0 3.467-9.716c1.204-3.418 2.083-5.974 2.636-7.666.586-1.693.912-2.637.977-2.832.033-.098.049-.228.049-.391a.895.895 0 0 0-.391-.635.937.937 0 0 0-.683-.293c-7.032.489-14.763 1.546-23.194 3.174-18.978 3.678-30.827 8.789-35.547 15.332-2.669 3.711-2.864 7.813-.586 12.305.131.26.326.423.586.488a.826.826 0 0 0 .733-.049.873.873 0 0 0 .488-.586.947.947 0 0 0 0-.732c-3.971-7.813.83-14.29 14.404-19.434 9.799-3.711 22.722-6.396 38.77-8.056l2.978-.293a1271.291 1271.291 0 0 1-6.64 19.58 424.39 424.39 0 0 0-13.574 1.709c-4.069.553-6.267.895-6.592 1.025-1.856.879-2.425 2.1-1.709 3.662.325.716 1.367 1.953 3.125 3.711 1.041.977 1.855 1.791 2.441 2.442.586.651 1.319 1.546 2.197 2.685a15.993 15.993 0 0 1 2.1 3.565 14.336 14.336 0 0 1 1.025 3.857c.521 3.776 2.588 1.725 6.202-6.152 1.692-3.711 3.678-8.594 5.957-14.649 7.975-.846 14.453-1.4 19.433-1.66a59.367 59.367 0 0 1 3.272-.098c-8.269 20.834-10.287 31.95-6.055 33.35.358.098.749.13 1.172.098a.79.79 0 0 0 .683-.342.787.787 0 0 0 .245-.684c-.033-.586-.375-.911-1.026-.976-2.604-.196-2.213-5.567 1.172-16.114 1.465-4.589 3.369-9.716 5.713-15.38.879 0 1.628.032 2.246.097.261.033.781-.13 1.563-.488.097-.033.13-.016.097.049-.032.065-.309.244-.83.537-.26.13-.439.325-.537.586-.065.26-.032.521.098.781.13.228.325.391.586.488.26.065.521.033.781-.097.944-.489 1.514-.977 1.709-1.465.618-1.367-.488-2.165-3.32-2.393a22.526 22.526 0 0 0-1.563-.049 609.014 609.014 0 0 1 5.274-12.06c1.92-4.232 3.32-7.292 4.199-9.18.911-1.888 1.481-3.043 1.709-3.467.097-.26.097-.52 0-.781a.874.874 0 0 0-.489-.586.865.865 0 0 0-.39-.097Zm-37.647 30.127c-2.832 8.17-5.273 13.932-7.324 17.285-.846 1.302-1.351 1.709-1.514 1.22-.39-1.432-.846-2.701-1.367-3.808a15.245 15.245 0 0 0-1.806-3.076 40.991 40.991 0 0 0-1.807-2.246 65.302 65.302 0 0 0-2.148-2.149c-.293-.26-.505-.456-.635-.586-1.595-1.562-2.507-2.604-2.735-3.125-.162-.358.082-.683.733-.976.293-.163 2.295-.489 6.006-.977a473.039 473.039 0 0 1 12.597-1.562Z" mask="url(#path-5-inside-1)" style="-webkit-animation:dash 1s linear forwards 1.9s;-o-animation:dash 1s linear forwards 1.9s;-moz-animation:dash 1s linear forwards 1.9s;animation:dash 1s linear forwards 1.9s;stroke-dasharray:800;stroke-dashoffset:800"/><path stroke="#fff" stroke-width="6" d="M333.789 247.359c-.391 0-.716.212-.977.635a843.642 843.642 0 0 1-2.929 4.785c-9.831.554-17.643 1.563-23.438 3.028-1.627.423-3.027.83-4.199 1.22-1.172.391-2.083.765-2.734 1.123-.651.326-1.107.651-1.367.977-.261.293-.359.57-.293.83.227.879 1.627 1.27 4.199 1.172a38.984 38.984 0 0 0 6.006-.684c1.497-.26 2.669-.618 3.515-1.074.847-.456 1.221-.993 1.123-1.611a1.082 1.082 0 0 0-.439-.635.85.85 0 0 0-.733-.146.887.887 0 0 0-.634.39.936.936 0 0 0-.147.781c0 .033-.13.065-.39.098a10.4 10.4 0 0 0-1.172.098c-.521.032-1.009.081-1.465.146-1.953.358-3.858.57-5.713.635-.391 0-.781.049-1.172.146-.391.098-.635.163-.732.196-.131.032-.228.032-.293 0 0-.033.195-.082.586-.147.39-.097 1.204-.276 2.441-.537 1.237-.293 2.604-.635 4.102-1.025 5.436-1.4 12.662-2.36 21.679-2.881-5.664 9.017-9.798 14.762-12.402 17.236-.716.684-1.204 1.042-1.465 1.074v-.048c.065-.065.098-.131.098-.196-.13-1.009.228-2.913 1.074-5.713.163-.553.065-.976-.293-1.269-.195-.163-.439-.212-.732-.147a1.235 1.235 0 0 0-.733.489c0 .13-.439.7-1.318 1.709a1.623 1.623 0 0 0-.196-.635c-.423-.586-.895-1.009-1.416-1.27a3.244 3.244 0 0 0-1.66-.341 5.12 5.12 0 0 0-1.66.39 6.848 6.848 0 0 0-1.66.879 11.662 11.662 0 0 0-2.637 2.734c-.814 1.237-1.172 2.344-1.074 3.321.13 1.4 1.025 2.018 2.686 1.855 2.539-.228 5.11-1.595 7.714-4.101-.195 1.172-.26 2.116-.195 2.832.163 1.302.749 1.937 1.758 1.904.781-.033 1.741-.602 2.881-1.709 2.441-2.311 6.103-7.259 10.986-14.844a205.69 205.69 0 0 0-2.734 7.325 598.394 598.394 0 0 0-2.637 8.007 126.96 126.96 0 0 0-2.295 8.301 123.417 123.417 0 0 0-1.465 7.568c-.39 2.474-.537 4.688-.439 6.641.13 1.953.504 3.516 1.123 4.688.13.227.325.374.586.439.293.098.553.081.781-.049.228-.13.374-.342.44-.635a.827.827 0 0 0-.049-.732c-.456-.814-.749-1.872-.879-3.174-.13-1.302-.13-2.734 0-4.297.13-1.53.374-3.255.732-5.175a84.572 84.572 0 0 1 1.27-5.713 152.814 152.814 0 0 1 1.709-6.055c.651-2.148 1.286-4.15 1.904-6.006a436.22 436.22 0 0 1 2.051-5.81c.748-2.019 1.4-3.76 1.953-5.225a626.786 626.786 0 0 1 1.758-4.443c3.287-.163 6.754-.261 10.4-.293a319.93 319.93 0 0 1 9.473-.049c2.702.032 5.306.097 7.812.195 2.507.065 4.265.13 5.274.195 1.041.033 1.709.066 2.002.098.293 0 .537-.081.732-.244a.938.938 0 0 0 .293-.684.849.849 0 0 0-.244-.732.793.793 0 0 0-.684-.342c-1.041-.065-2.718-.13-5.029-.195-2.311-.098-6.527-.195-12.646-.293-6.088-.098-11.605 0-16.553.293a101.458 101.458 0 0 1 1.513-3.565c.131-.293.163-.586.098-.879-.032-.293-.146-.52-.342-.683a.788.788 0 0 0-.488-.147Zm-24.512 20.85c.684 0 1.237.309 1.661.928.13.162.292.26.488.293-2.084 1.888-4.102 2.929-6.055 3.125-.488.032-.749 0-.781-.098-.033-.293.163-.765.586-1.416a8.761 8.761 0 0 1 1.953-2.002c.781-.553 1.497-.83 2.148-.83Z" mask="url(#path-5-inside-1)" style="-webkit-animation:dash 1s linear forwards 2.1s;-o-animation:dash 1s linear forwards 2.1s;-moz-animation:dash 1s linear forwards 2.1s;animation:dash 1s linear forwards 2.1s;stroke-dasharray:800;stroke-dashoffset:800"/><path stroke="#fff" stroke-width="6" d="M357.227 272.018a.953.953 0 0 1 .732.097.89.89 0 0 1 .488.635.85.85 0 0 1-.146.732.898.898 0 0 1-.586.44c-.098.032-.537.146-1.319.342-.781.195-1.855.488-3.222.879a97.06 97.06 0 0 0-4.102 1.171 52.692 52.692 0 0 0-4.004 1.319c-1.302.488-2.278.928-2.929 1.318-1.4.847-2.312.912-2.735.195-.228-.358-.179-1.009.147-1.953.716-2.083.814-3.759.293-5.029-.228-.586-.879-.358-1.953.684-1.075 1.009-2.328 2.522-3.76 4.541a776.089 776.089 0 0 0-3.223 4.492 193.565 193.565 0 0 0-1.758 2.637v.048c-.13.228-.341.358-.634.391a.955.955 0 0 1-.733-.098c-.423-.293-.553-.683-.39-1.171h-.049c4.004-12.598 7.536-22.673 10.595-30.225 3.093-7.552 5.648-12.809 7.666-15.772.749-1.106 1.449-1.92 2.1-2.441.684-.521 1.27-.749 1.758-.684.488.066.911.391 1.269.977.717 1.139.717 3.483 0 7.031-.455 2.279-1.171 4.72-2.148 7.324-.944 2.605-2.148 5.339-3.613 8.204-1.433 2.832-3.223 5.631-5.371 8.398-2.116 2.734-4.395 5.078-6.836 7.031-.326.944-.83 2.474-1.514 4.59 2.344-3.092 4.492-5.404 6.445-6.933 1.953-1.563 3.288-1.482 4.004.244.651 1.595.668 3.418.049 5.468 1.27-.651 3.223-1.383 5.859-2.197 2.67-.846 4.867-1.497 6.592-1.953 1.725-.456 2.735-.7 3.028-.732Zm-10.01-33.204c-3.386 4.981-7.764 15.284-13.135 30.909 2.572-2.539 4.932-5.55 7.08-9.034 2.149-3.515 3.809-6.803 4.981-9.863 1.204-3.06 2.083-5.941 2.636-8.642.619-2.995.7-4.867.244-5.616-.097-.13-.699.619-1.806 2.246Z" mask="url(#path-5-inside-1)" style="-webkit-animation:dash 1s linear forwards 2.3s;-o-animation:dash 1s linear forwards 2.3s;-moz-animation:dash 1s linear forwards 2.3s;animation:dash 1s linear forwards 2.3s;stroke-dasharray:800;stroke-dashoffset:800"/><path stroke="#fff" stroke-width="6" d="M364.16 262.74h-.244a4.158 4.158 0 0 0-1.025.489 5.998 5.998 0 0 0-.879.634 7.357 7.357 0 0 0-.83.879c-.261.326-.472.602-.635.83-.163.228-.342.505-.537.83-.163.293-.261.472-.293.537 0 .033-.033.098-.098.196a.943.943 0 0 0-.049.781c.098.26.261.456.489.586.26.098.52.098.781 0 .26-.098.456-.26.586-.488 0-.065.13-.326.39-.782.261-.455.635-.96 1.123-1.513.489-.586.977-.928 1.465-1.026a.894.894 0 0 0 .586-.439.853.853 0 0 0 .147-.733c-.13-.553-.456-.813-.977-.781Zm-4.931 7.227c-.293 0-.554.114-.782.342-1.334 1.627-2.213 3.043-2.636 4.248-.293.846-.359 1.562-.196 2.148.163.781.602 1.335 1.319 1.66.52.228 1.123.342 1.806.342 1.302 0 3.207-.472 5.713-1.416.977-.391 1.97-.814 2.979-1.27a38.745 38.745 0 0 0 2.588-1.269c.716-.391 1.237-.7 1.562-.928a.893.893 0 0 0 .391-.635.851.851 0 0 0-.147-.732.927.927 0 0 0-.683-.391.733.733 0 0 0-.684.147c-1.335.944-3.564 2.002-6.689 3.174-2.279.879-3.956 1.318-5.03 1.318-.423 0-.732-.049-.928-.146a.441.441 0 0 1-.244-.293c-.065-.261-.016-.603.147-1.026.325-1.009 1.09-2.23 2.295-3.662a.854.854 0 0 0 .195-.683.926.926 0 0 0-.342-.733c-.162-.13-.374-.195-.634-.195Z" mask="url(#path-5-inside-1)" style="-webkit-animation:dash 1s linear forwards 2.5s;-o-animation:dash 1s linear forwards 2.5s;-moz-animation:dash 1s linear forwards 2.5s;animation:dash 1s linear forwards 2.5s;stroke-dasharray:800;stroke-dashoffset:800"/><path stroke="#fff" stroke-width="6" d="M374.268 271.529c.227.033.423.131.586.293a.66.66 0 0 1 .195.586.87.87 0 0 1-.098.391 1.962 1.962 0 0 1-.244.293.615.615 0 0 1-.293.146 1.073 1.073 0 0 1-.342.049c-1.432.033-2.702.733-3.808 2.1-.782 1.009-.993 1.692-.635 2.051.195.227.602.211 1.221-.049.358-.131.862-.554 1.513-1.27 1.172-1.237 2.588-3.109 4.248-5.615.782-2.93 1.693-5.99 2.735-9.18 1.627-5.013 3.287-9.505 4.98-13.476 1.693-4.004 3.093-6.608 4.199-7.813 1.01-1.074 1.872-1.269 2.588-.586.261.228.456.521.586.879.261.846.147 2.23-.342 4.151-.488 1.888-1.237 4.003-2.246 6.347-.976 2.344-2.148 4.85-3.515 7.52-2.409 4.687-4.867 8.935-7.373 12.744-.782 2.93-1.368 5.469-1.758 7.617-.391 2.148-.521 3.711-.391 4.688 0 .097-.032.227-.097.39v.049a.88.88 0 0 1 .634.146c.196.131.31.31.342.538a.782.782 0 0 1-.195.634c-.163.228-.358.375-.586.44-1.074.228-1.693-.375-1.856-1.807-.195-1.562.196-4.492 1.172-8.789a33.166 33.166 0 0 1-1.904 2.246c-.846.944-1.579 1.53-2.197 1.758-1.465.618-2.588.57-3.369-.146-.554-.456-.814-1.107-.782-1.954.065-1.627.733-2.946 2.002-3.955 1.302-1.041 2.979-1.513 5.03-1.416Zm5.664-6.396a161.689 161.689 0 0 0 4.052-7.422c2.051-4.004 3.646-7.52 4.786-10.547 1.139-3.06 1.546-5.094 1.22-6.103-.032-.131-.065-.212-.097-.245l-.049.049-.098.293c-1.009 1.074-2.327 3.548-3.955 7.422-1.595 3.841-3.19 8.203-4.785 13.086-.423 1.335-.781 2.49-1.074 3.467Z" mask="url(#path-5-inside-1)" style="stroke-dasharray:800;stroke-dashoffset:800;-webkit-animation:dash 1s linear forwards 2.7s;-o-animation:dash 1s linear forwards 2.7s;-moz-animation:dash 1s linear forwards 2.7s;animation:dash 1s linear forwards 2.7s"/><path stroke="#fff" stroke-width="6" d="M389.99 271.822c.098.13.163.277.196.44.878-1.009 1.318-1.563 1.318-1.66a.89.89 0 0 1 .635-.391c.293-.065.553-.033.781.098.325.26.472.586.439.976a490.879 490.879 0 0 0-.586 4.395c-.065.781-.048 1.22.049 1.318.261.033 1.384-.521 3.369-1.66 2.377-1.367 4.379-2.442 6.006-3.223a.83.83 0 0 1 .733-.049c.293.098.488.277.586.538.13.227.146.472.048.732-.097.26-.26.456-.488.586-1.53.749-3.483 1.79-5.859 3.125-.912.553-1.579.944-2.002 1.172a8.036 8.036 0 0 1-1.416.586c-.488.162-.895.228-1.221.195-.716-.098-1.204-.505-1.465-1.221-.228-.716-.276-1.855-.146-3.418-2.702 2.767-5.42 4.297-8.155 4.59-1.725.163-2.669-.472-2.832-1.904-.065-.879.277-1.872 1.026-2.979a10.13 10.13 0 0 1 2.49-2.636 14.69 14.69 0 0 1 1.123-.684 4.728 4.728 0 0 1 1.123-.439 3.666 3.666 0 0 1 1.172-.196c.391 0 .765.065 1.123.196.358.097.7.276 1.025.537.359.26.668.586.928.976Zm-.928 1.612c-.26-.033-.488-.179-.683-.44-.814-1.139-2.051-1.123-3.711.049a8.765 8.765 0 0 0-2.002 2.1c-.488.748-.716 1.318-.684 1.709.033.097.245.13.635.097 2.116-.228 4.265-1.4 6.445-3.515Z" mask="url(#path-5-inside-1)" style="-webkit-animation:dash 1s linear forwards 2.9s;-o-animation:dash 1s linear forwards 2.9s;-moz-animation:dash 1s linear forwards 2.9s;animation:dash 1s linear forwards 2.9s;stroke-dasharray:800;stroke-dashoffset:800"/><path stroke="#fff" stroke-width="6" d="M401.855 275.631a.78.78 0 0 1 0 .39 1.862 1.862 0 0 1-.146.391 1.972 1.972 0 0 1-.244.293 1.105 1.105 0 0 1-1.123.049 1.084 1.084 0 0 1-.44-.635c-.097-.293-.048-.667.147-1.123.228-.488.618-1.074 1.172-1.758a69.163 69.163 0 0 1 1.465-1.758l1.953-2.099c.813-.846 1.416-1.481 1.806-1.904a7.892 7.892 0 0 0-.732-.049c-.912-.065-1.595-.196-2.051-.391-1.172-.586-1.335-1.335-.488-2.246.488-.586 1.725-1.221 3.711-1.904 2.506-.912 3.955-.814 4.345.293.196.488.033 1.172-.488 2.05 1.432-.195 2.393-.439 2.881-.732.716-.391 1.253-.277 1.611.342.065.228.098.439.098.635 0 .195-.081.455-.244.781a26.15 26.15 0 0 1-.488.928 9.44 9.44 0 0 1-.684.927c-.26.358-.505.668-.732.928-.228.26-.472.553-.733.879-.26.293-.472.537-.635.732-4.101 5.339-6.412 8.578-6.933 9.717 1.985-.716 4.28-1.839 6.885-3.369 3.352-1.953 5.55-3.483 6.591-4.59a.94.94 0 0 1 .684-.293c.293 0 .537.098.732.293.196.163.293.391.293.684a.783.783 0 0 1-.244.683c-1.172 1.27-3.515 2.93-7.031 4.981-2.897 1.66-5.453 2.864-7.666 3.613-1.204.423-1.969.163-2.295-.781-.13-.423-.016-1.074.342-1.953.39-.847 1.041-1.921 1.953-3.223a107.793 107.793 0 0 1 2.344-3.32c.683-.912 1.611-2.132 2.783-3.662.586-.782 1.383-1.628 2.392-2.539-1.074.227-2.229.39-3.466.488-.619.716-1.644 1.839-3.076 3.369-2.898 3.092-4.314 4.72-4.249 4.883Zm6.397-10.205c.814-.912 1.188-1.433 1.123-1.563 0-.032-.065-.016-.195.049-.098.065-.31.195-.635.391a6.127 6.127 0 0 1-1.025.439c-.652.228-1.221.456-1.709.684h.048c.684.065 1.481.065 2.393 0Z" mask="url(#path-5-inside-1)" style="-webkit-animation:dash 1s linear forwards 3.1s;-o-animation:dash 1s linear forwards 3.1s;-moz-animation:dash 1s linear forwards 3.1s;animation:dash 1s linear forwards 3.1s;stroke-dasharray:800;stroke-dashoffset:800"/><path stroke="#fff" stroke-width="6" d="M426.27 271.822c.097.13.162.277.195.44.879-1.009 1.318-1.563 1.318-1.66a.892.892 0 0 1 .635-.391c.293-.065.553-.033.781.098.326.26.472.586.44.976a455.13 455.13 0 0 0-.586 4.395c-.065.781-.049 1.22.049 1.318.26.033 1.383-.521 3.369-1.66 2.376-1.367 4.378-2.442 6.006-3.223a.827.827 0 0 1 .732-.049c.293.098.488.277.586.538.13.227.146.472.049.732-.098.26-.261.456-.489.586-1.529.749-3.483 1.79-5.859 3.125-.911.553-1.579.944-2.002 1.172a8.036 8.036 0 0 1-1.416.586c-.488.162-.895.228-1.221.195-.716-.098-1.204-.505-1.464-1.221-.228-.716-.277-1.855-.147-3.418-2.702 2.767-5.42 4.297-8.154 4.59-1.725.163-2.669-.472-2.832-1.904-.065-.879.276-1.872 1.025-2.979a10.146 10.146 0 0 1 2.49-2.636 14.69 14.69 0 0 1 1.123-.684 4.744 4.744 0 0 1 1.123-.439 3.67 3.67 0 0 1 1.172-.196c.391 0 .765.065 1.123.196.358.097.7.276 1.026.537.358.26.667.586.928.976Zm-.928 1.612c-.261-.033-.488-.179-.684-.44-.814-1.139-2.051-1.123-3.711.049a8.785 8.785 0 0 0-2.002 2.1c-.488.748-.716 1.318-.683 1.709.032.097.244.13.634.097 2.116-.228 4.265-1.4 6.446-3.515Z" mask="url(#path-5-inside-1)" style="-webkit-animation:dash 1s linear forwards 3.3s;-o-animation:dash 1s linear forwards 3.3s;-moz-animation:dash 1s linear forwards 3.3s;animation:dash 1s linear forwards 3.3s;stroke-dasharray:800;stroke-dashoffset:800"/><defs><style>.myHexagon{stroke-dasharray:800;stroke-dashoffset:800;-webkit-animation:dash 4s linear forwards .5s;-o-animation:dash 4s linear forwards .5s;-moz-animation:dash 4s linear forwards .5s;animation:dash 4s linear forwards .5s}</style></defs></svg>