<svg xmlns="http://www.w3.org/2000/svg" width="795.394" height="574.038" data-name="Layer 1"><defs><linearGradient id="a" x1="-450.79" x2="-450.79" y1="2803.047" y2="2729.348" gradientTransform="rotate(90 1103.938 2113.595)" gradientUnits="userSpaceOnUse"><stop offset="0" stop-color="gray" stop-opacity=".25"/><stop offset=".535" stop-color="gray" stop-opacity=".12"/><stop offset="1" stop-color="gray" stop-opacity=".1"/></linearGradient></defs><ellipse cx="232.058" cy="450.069" fill="#e0e0e0" rx="35.095" ry="5.264" transform="rotate(-63.611 -.497 531.685)"/><ellipse cx="670.577" cy="667.856" fill="#e0e0e0" rx="35.095" ry="3.577" transform="rotate(-63.611 438.023 749.472)"/><path fill="#f55f44" d="m220.406 405.284 16.237 13.407-44.691 54.123-16.237-13.407z"/><path opacity=".05" d="m222.368 482.555-23.063-5.423 16.065-68.327 23.063 5.423z"/><path fill="#f55f44" d="m222.367 482.554-20.498-4.82 16.065-68.326 20.498 4.82z"/><path fill="url(#a)" transform="rotate(-63.611 218.781 640.484)" d="M414.486 314.082h73.699v489.572h-73.699z"/><path fill="#f5f5f5" d="M452.713 536.124c-8.584-4.118-444.844-220.718-438.557-217.598 24.214-36.958 31.197-62.876 31.197-62.876l438.557 217.6s-15.402 27.029-31.197 62.875Z"/><path opacity=".05" d="m237.123 350.8 36.154 17.94-31.197 62.875-36.154-17.938z"/><path fill="#f55f44" d="m238.695 351.58 33.01 16.38-31.197 62.875-33.01-16.378z"/><path opacity=".05" d="m243.41 353.92 22.007 10.92-31.197 62.875-22.007-10.919z"/><path fill="#f55f44" d="m244.983 354.7 18.862 9.36-31.197 62.875-18.862-9.359z"/><circle cx="261.306" cy="563.925" r="2.926" fill="#dbdbdb"/><g opacity=".5" fill="#47e6b1"><path d="M29.394 482h3v17h-3z"/><path d="M39.394 489v3h-17v-3z"/></g><g opacity=".5" fill="#47e6b1"><path d="M785.394 270h3v17h-3z"/><path d="M795.394 277v3h-17v-3z"/></g><g opacity=".5" fill="#47e6b1"><path d="M47.394 59h3v17h-3z"/><path d="M57.394 66v3h-17v-3z"/></g><g opacity=".5" fill="#47e6b1"><path d="M695.394 33h3v17h-3z"/><path d="M705.394 40v3h-17v-3z"/></g><path fill="#4d8af0" d="M12.29 253.456a3.675 3.675 0 0 1-2.048-4.44 1.766 1.766 0 0 0 .08-.408 1.843 1.843 0 0 0-3.31-1.221 1.766 1.766 0 0 0-.204.361 3.675 3.675 0 0 1-4.441 2.048 1.766 1.766 0 0 0-.408-.08 1.843 1.843 0 0 0-1.221 3.31 1.766 1.766 0 0 0 .362.204 3.675 3.675 0 0 1 2.047 4.441 1.766 1.766 0 0 0-.08.408 1.843 1.843 0 0 0 3.31 1.221 1.766 1.766 0 0 0 .205-.362 3.675 3.675 0 0 1 4.44-2.047 1.767 1.767 0 0 0 .408.08 1.843 1.843 0 0 0 1.221-3.31 1.767 1.767 0 0 0-.361-.205Zm172-197a3.675 3.675 0 0 1-2.048-4.44 1.766 1.766 0 0 0 .08-.408 1.843 1.843 0 0 0-3.31-1.221 1.766 1.766 0 0 0-.204.361 3.675 3.675 0 0 1-4.441 2.048 1.766 1.766 0 0 0-.408-.08 1.843 1.843 0 0 0-1.221 3.31 1.766 1.766 0 0 0 .362.204 3.675 3.675 0 0 1 2.047 4.441 1.766 1.766 0 0 0-.08.408 1.843 1.843 0 0 0 3.31 1.221 1.766 1.766 0 0 0 .205-.362 3.675 3.675 0 0 1 4.44-2.047 1.767 1.767 0 0 0 .408.08 1.843 1.843 0 0 0 1.221-3.31 1.767 1.767 0 0 0-.361-.205Zm210 511a3.675 3.675 0 0 1-2.048-4.44 1.766 1.766 0 0 0 .08-.408 1.843 1.843 0 0 0-3.31-1.221 1.766 1.766 0 0 0-.204.361 3.675 3.675 0 0 1-4.441 2.048 1.766 1.766 0 0 0-.408-.08 1.843 1.843 0 0 0-1.221 3.31 1.766 1.766 0 0 0 .362.204 3.675 3.675 0 0 1 2.047 4.441 1.766 1.766 0 0 0-.08.408 1.843 1.843 0 0 0 3.31 1.221 1.766 1.766 0 0 0 .205-.362 3.675 3.675 0 0 1 4.44-2.047 1.767 1.767 0 0 0 .408.08 1.843 1.843 0 0 0 1.221-3.31 1.767 1.767 0 0 0-.361-.205Z" opacity=".5"/><circle cx="759.394" cy="444" r="6" fill="#f55f44" opacity=".5"/><circle cx="627.394" cy="482" r="6" fill="#4d8af0" opacity=".5"/><circle cx="103.394" cy="541" r="6" fill="#47e6b1" opacity=".5"/><circle cx="411.394" cy="6" r="6" fill="#f55f44" opacity=".5"/><path fill="#55198b" d="m204.894 357.5-24 36s8 37 185 36 191-36 191-36l-33-48-101-69Z"/><path d="m204.894 357.5-24 36s8 37 185 36 191-36 191-36l-33-48-101-69Z" opacity=".15"/><path fill="#55198b" d="m715.394 224-315 139-384-139 352-160 172.79 79.67 6.19 2.86L715.394 224z"/><path opacity=".15" d="m715.394 224-315 139-384-139 352-160 172.79 79.67 6.19 2.86L715.394 224z"/><path fill="#f5f5f5" d="m553.894 257.32-6 .36-6.71-114.01 6.19 2.86 6.52 110.79z"/><path fill="#55198b" d="m208.894 223.5-28 170s201-65 376 0l-26-180s-235-29-322 10Z"/><ellipse cx="553.394" cy="272" fill="#f5f5f5" rx="29" ry="20"/></svg>